<svg xmlns="http://www.w3.org/2000/svg" width="500" viewBox="0 0 375 375" height="500" preserveAspectRatio="xMidYMid meet">
  <defs>
    <linearGradient id="logoGradient" x1="0%" y1="0%" x2="100%" y2="100%">
      <stop offset="0%" style="stop-color:#7c3aed"/>
      <stop offset="100%" style="stop-color:#a855f7"/>
    </linearGradient>
    <clipPath id="clip"><rect x="15" width="360" y="0" height="372"/></clipPath>
  </defs>
  <g transform="translate(375, 0) scale(-1, 1)">
    <g transform="matrix(1, 0, 0, 1, 6, 0)">
      <g clip-path="url(#clip)">
        <g fill="url(#logoGradient)">
          <g transform="translate(358.573766, 32.199238)">
            <path d="M -176.765625 337.78125 C -200.472656 337.78125 -222.738281 333.296875 -243.5625 324.328125 C -264.382812 315.359375 -282.671875 303 -298.421875 287.25 C -314.171875 271.5 -326.53125 253.210938 -335.5 232.390625 C -344.476562 211.566406 -348.96875 189.300781 -348.96875 165.59375 C -348.96875 141.882812 -344.476562 119.617188 -335.5 98.796875 C -326.53125 77.972656 -314.171875 59.601562 -298.421875 43.6875 C -282.671875 27.769531 -264.382812 15.320312 -243.5625 6.34375 C -222.738281 -2.625 -200.472656 -7.109375 -176.765625 -7.109375 C -153.066406 -7.109375 -130.71875 -2.625 -109.71875 6.34375 C -88.71875 15.320312 -70.34375 27.769531 -54.59375 43.6875 C -38.851562 59.601562 -26.492188 77.972656 -17.515625 98.796875 C -8.546875 119.617188 -4.0625 141.882812 -4.0625 165.59375 C -4.0625 189.300781 -8.546875 211.566406 -17.515625 232.390625 C -26.492188 253.210938 -38.851562 271.5 -54.59375 287.25 C -70.34375 303 -88.71875 315.359375 -109.71875 324.328125 C -130.71875 333.296875 -153.066406 337.78125 -176.765625 337.78125 Z M -168.125 193.53125 C -155.601562 193.53125 -145.785156 188.453125 -138.671875 178.296875 L -138.671875 318.484375 C -122.421875 313.410156 -109.210938 305.113281 -99.046875 293.59375 C -88.890625 282.082031 -81.609375 268.789062 -77.203125 253.71875 C -72.804688 238.65625 -71.535156 223.332031 -73.390625 207.75 C -75.253906 192.175781 -79.910156 177.703125 -87.359375 164.328125 C -94.816406 150.953125 -105.316406 140.113281 -118.859375 131.8125 C -132.398438 123.519531 -148.820312 119.375 -168.125 119.375 C -178.289062 119.375 -187.015625 122.925781 -194.296875 130.03125 C -201.578125 137.144531 -205.21875 145.953125 -205.21875 156.453125 C -205.21875 166.609375 -201.578125 175.328125 -194.296875 182.609375 C -187.015625 189.890625 -178.289062 193.53125 -168.125 193.53125 Z M -168.125 193.53125 "/>
          </g>
        </g>
      </g>
    </g>
  </g>
</svg>
