<svg xmlns="http://www.w3.org/2000/svg" xmlns:xlink="http://www.w3.org/1999/xlink" width="1602" zoomAndPan="magnify" viewBox="0 0 1201.5 191.999996" height="256" preserveAspectRatio="xMidYMid meet" version="1.0"><defs><g/><clipPath id="fb99e51333"><path d="M 103.992188 175.058594 L 120.765625 175.058594 L 120.765625 191.832031 L 103.992188 191.832031 Z M 103.992188 175.058594 " clip-rule="nonzero"/></clipPath><clipPath id="9ce8c01f2a"><path d="M 112.378906 175.058594 C 107.75 175.058594 103.992188 178.816406 103.992188 183.445312 C 103.992188 188.078125 107.75 191.832031 112.378906 191.832031 C 117.011719 191.832031 120.765625 188.078125 120.765625 183.445312 C 120.765625 178.816406 117.011719 175.058594 112.378906 175.058594 Z M 112.378906 175.058594 " clip-rule="nonzero"/></clipPath><clipPath id="3960f0d349"><path d="M 0.992188 0.0585938 L 17.765625 0.0585938 L 17.765625 16.832031 L 0.992188 16.832031 Z M 0.992188 0.0585938 " clip-rule="nonzero"/></clipPath><clipPath id="ee65e52cca"><path d="M 9.378906 0.0585938 C 4.75 0.0585938 0.992188 3.816406 0.992188 8.445312 C 0.992188 13.078125 4.75 16.832031 9.378906 16.832031 C 14.011719 16.832031 17.765625 13.078125 17.765625 8.445312 C 17.765625 3.816406 14.011719 0.0585938 9.378906 0.0585938 Z M 9.378906 0.0585938 " clip-rule="nonzero"/></clipPath><clipPath id="96910c80d6"><rect x="0" width="18" y="0" height="17"/></clipPath><clipPath id="51a4207c50"><path d="M 147.636719 175.058594 L 164.410156 175.058594 L 164.410156 191.832031 L 147.636719 191.832031 Z M 147.636719 175.058594 " clip-rule="nonzero"/></clipPath><clipPath id="f9f69a83ff"><path d="M 156.023438 175.058594 C 151.390625 175.058594 147.636719 178.816406 147.636719 183.445312 C 147.636719 188.078125 151.390625 191.832031 156.023438 191.832031 C 160.652344 191.832031 164.410156 188.078125 164.410156 183.445312 C 164.410156 178.816406 160.652344 175.058594 156.023438 175.058594 Z M 156.023438 175.058594 " clip-rule="nonzero"/></clipPath><clipPath id="4baf4dac93"><path d="M 0.636719 0.0585938 L 17.410156 0.0585938 L 17.410156 16.832031 L 0.636719 16.832031 Z M 0.636719 0.0585938 " clip-rule="nonzero"/></clipPath><clipPath id="7a03767065"><path d="M 9.023438 0.0585938 C 4.390625 0.0585938 0.636719 3.816406 0.636719 8.445312 C 0.636719 13.078125 4.390625 16.832031 9.023438 16.832031 C 13.652344 16.832031 17.410156 13.078125 17.410156 8.445312 C 17.410156 3.816406 13.652344 0.0585938 9.023438 0.0585938 Z M 9.023438 0.0585938 " clip-rule="nonzero"/></clipPath><clipPath id="394214ba90"><rect x="0" width="18" y="0" height="17"/></clipPath><clipPath id="46e7c01540"><rect x="0" width="799" y="0" height="147"/></clipPath><clipPath id="3991b22b01"><path d="M 1023.417969 6.769531 L 1040.191406 6.769531 L 1040.191406 23.542969 L 1023.417969 23.542969 Z M 1023.417969 6.769531 " clip-rule="nonzero"/></clipPath><clipPath id="179e2339e1"><path d="M 1031.804688 6.769531 C 1027.171875 6.769531 1023.417969 10.523438 1023.417969 15.15625 C 1023.417969 19.789062 1027.171875 23.542969 1031.804688 23.542969 C 1036.4375 23.542969 1040.191406 19.789062 1040.191406 15.15625 C 1040.191406 10.523438 1036.4375 6.769531 1031.804688 6.769531 Z M 1031.804688 6.769531 " clip-rule="nonzero"/></clipPath><clipPath id="4f56da62c5"><path d="M 0.417969 0.769531 L 17.191406 0.769531 L 17.191406 17.542969 L 0.417969 17.542969 Z M 0.417969 0.769531 " clip-rule="nonzero"/></clipPath><clipPath id="6579ce2397"><path d="M 8.804688 0.769531 C 4.171875 0.769531 0.417969 4.523438 0.417969 9.15625 C 0.417969 13.789062 4.171875 17.542969 8.804688 17.542969 C 13.4375 17.542969 17.191406 13.789062 17.191406 9.15625 C 17.191406 4.523438 13.4375 0.769531 8.804688 0.769531 Z M 8.804688 0.769531 " clip-rule="nonzero"/></clipPath><clipPath id="aa395d9765"><rect x="0" width="18" y="0" height="18"/></clipPath><clipPath id="a5ffc0e610"><path d="M 1067.0625 6.769531 L 1083.832031 6.769531 L 1083.832031 23.542969 L 1067.0625 23.542969 Z M 1067.0625 6.769531 " clip-rule="nonzero"/></clipPath><clipPath id="e594c0d2d5"><path d="M 1075.449219 6.769531 C 1070.816406 6.769531 1067.0625 10.523438 1067.0625 15.15625 C 1067.0625 19.789062 1070.816406 23.542969 1075.449219 23.542969 C 1080.078125 23.542969 1083.832031 19.789062 1083.832031 15.15625 C 1083.832031 10.523438 1080.078125 6.769531 1075.449219 6.769531 Z M 1075.449219 6.769531 " clip-rule="nonzero"/></clipPath><clipPath id="040cef410f"><path d="M 0.0625 0.769531 L 16.832031 0.769531 L 16.832031 17.542969 L 0.0625 17.542969 Z M 0.0625 0.769531 " clip-rule="nonzero"/></clipPath><clipPath id="a3c32a0ed4"><path d="M 8.449219 0.769531 C 3.816406 0.769531 0.0625 4.523438 0.0625 9.15625 C 0.0625 13.789062 3.816406 17.542969 8.449219 17.542969 C 13.078125 17.542969 16.832031 13.789062 16.832031 9.15625 C 16.832031 4.523438 13.078125 0.769531 8.449219 0.769531 Z M 8.449219 0.769531 " clip-rule="nonzero"/></clipPath><clipPath id="2fe7e95fdc"><rect x="0" width="17" y="0" height="18"/></clipPath></defs><g clip-path="url(#fb99e51333)"><g clip-path="url(#9ce8c01f2a)"><g transform="matrix(1, 0, 0, 1, 103, 175)"><g clip-path="url(#96910c80d6)"><g clip-path="url(#3960f0d349)"><g clip-path="url(#ee65e52cca)"><path fill="#ff5a1f" d="M 0.992188 0.0585938 L 17.765625 0.0585938 L 17.765625 16.832031 L 0.992188 16.832031 Z M 0.992188 0.0585938 " fill-opacity="1" fill-rule="nonzero"/></g></g></g></g></g></g><g clip-path="url(#51a4207c50)"><g clip-path="url(#f9f69a83ff)"><g transform="matrix(1, 0, 0, 1, 147, 175)"><g clip-path="url(#394214ba90)"><g clip-path="url(#4baf4dac93)"><g clip-path="url(#7a03767065)"><path fill="#000000" d="M 0.636719 0.0585938 L 17.410156 0.0585938 L 17.410156 16.832031 L 0.636719 16.832031 Z M 0.636719 0.0585938 " fill-opacity="1" fill-rule="nonzero"/></g></g></g></g></g></g><g transform="matrix(1, 0, 0, 1, 201, 14)"><g clip-path="url(#46e7c01540)"><g fill="#000000" fill-opacity="1"><g transform="translate(0.474673, 120.0756)"><g><path d="M 63.03125 0 L 53.171875 0 L 53.171875 -41.046875 C 53.171875 -46.992188 51.882812 -51.609375 49.3125 -54.890625 C 46.75 -58.171875 42.585938 -59.8125 36.828125 -59.8125 C 33.210938 -59.8125 29.941406 -58.976562 27.015625 -57.3125 C 24.085938 -55.65625 21.597656 -53.429688 19.546875 -50.640625 C 17.503906 -47.859375 15.945312 -44.671875 14.875 -41.078125 C 13.8125 -37.484375 13.28125 -33.738281 13.28125 -29.84375 L 13.28125 0 L 3.5 0 L 3.5 -66.53125 L 13.28125 -66.53125 L 13.28125 -49.828125 C 17.988281 -62.003906 26.382812 -68.09375 38.46875 -68.09375 C 54.84375 -68.09375 63.03125 -59.078125 63.03125 -41.046875 Z M 63.03125 0 "/></g></g><g transform="translate(80.277709, 120.0756)"><g><path d="M 9.78125 -29.84375 C 10.488281 -22.789062 13.054688 -17.171875 17.484375 -12.984375 C 21.910156 -8.796875 27.671875 -6.703125 34.765625 -6.703125 C 39.753906 -6.703125 44.203125 -7.722656 48.109375 -9.765625 C 52.015625 -11.816406 54.941406 -14.367188 56.890625 -17.421875 L 63.75 -12.703125 C 60.414062 -8.035156 56.4375 -4.476562 51.8125 -2.03125 C 47.195312 0.414062 41.515625 1.640625 34.765625 1.640625 C 29.617188 1.640625 24.90625 0.785156 20.625 -0.921875 C 16.34375 -2.640625 12.644531 -5.03125 9.53125 -8.09375 C 6.414062 -11.164062 4 -14.816406 2.28125 -19.046875 C 0.570312 -23.285156 -0.28125 -28 -0.28125 -33.1875 C -0.28125 -38.238281 0.488281 -42.890625 2.03125 -47.140625 C 3.582031 -51.398438 5.820312 -55.085938 8.75 -58.203125 C 11.675781 -61.328125 15.234375 -63.753906 19.421875 -65.484375 C 23.609375 -67.222656 28.296875 -68.09375 33.484375 -68.09375 C 39.140625 -68.09375 44.082031 -67.140625 48.3125 -65.234375 C 52.550781 -63.335938 56.085938 -60.710938 58.921875 -57.359375 C 61.753906 -54.003906 63.847656 -49.992188 65.203125 -45.328125 C 66.554688 -40.660156 67.234375 -35.5 67.234375 -29.84375 Z M 56.890625 -38.1875 C 55.796875 -45.46875 53.15625 -50.890625 48.96875 -54.453125 C 44.78125 -58.023438 39.617188 -59.8125 33.484375 -59.8125 C 30.335938 -59.8125 27.429688 -59.300781 24.765625 -58.28125 C 22.097656 -57.257812 19.742188 -55.796875 17.703125 -53.890625 C 15.660156 -51.984375 13.945312 -49.6875 12.5625 -47 C 11.1875 -44.3125 10.304688 -41.375 9.921875 -38.1875 Z M 56.890625 -38.1875 "/></g></g><g transform="translate(160.080746, 120.0756)"><g><path d="M 3.5 -66.53125 L 13.28125 -66.53125 L 13.28125 -25.40625 C 13.28125 -19.457031 14.578125 -14.851562 17.171875 -11.59375 C 19.765625 -8.332031 23.9375 -6.703125 29.6875 -6.703125 C 33.3125 -6.703125 36.570312 -7.535156 39.46875 -9.203125 C 42.375 -10.867188 44.847656 -13.09375 46.890625 -15.875 C 48.941406 -18.664062 50.5 -21.859375 51.5625 -25.453125 C 52.632812 -29.046875 53.171875 -32.789062 53.171875 -36.6875 L 53.171875 -66.53125 L 63.03125 -66.53125 L 63.03125 0 L 53.171875 0 L 53.171875 -16.625 C 48.515625 -4.445312 40.140625 1.640625 28.046875 1.640625 C 11.679688 1.640625 3.5 -7.375 3.5 -25.40625 Z M 3.5 -66.53125 "/></g></g><g transform="translate(239.883782, 120.0756)"><g><path d="M 62.890625 -57.171875 C 59.367188 -58.929688 55.179688 -59.8125 50.328125 -59.8125 C 46.328125 -59.8125 42.753906 -58.953125 39.609375 -57.234375 C 36.472656 -55.523438 33.8125 -53.28125 31.625 -50.5 C 29.4375 -47.71875 27.757812 -44.53125 26.59375 -40.9375 C 25.425781 -37.34375 24.84375 -33.644531 24.84375 -29.84375 L 24.84375 -8.34375 L 39.90625 -8.34375 L 39.90625 0 L 0 0 L 0 -8.34375 L 15.0625 -8.34375 L 15.0625 -58.171875 L 0 -58.171875 L 0 -66.53125 L 24.84375 -66.53125 L 24.84375 -49.828125 C 29.3125 -62.003906 37.804688 -68.09375 50.328125 -68.09375 C 53.703125 -68.09375 56.640625 -67.878906 59.140625 -67.453125 C 61.640625 -67.023438 63.957031 -66.265625 66.09375 -65.171875 Z M 62.890625 -57.171875 "/></g></g><g transform="translate(319.686818, 120.0756)"><g><path d="M -0.140625 -17.984375 C -0.140625 -22.171875 0.90625 -25.679688 3 -28.515625 C 5.09375 -31.347656 7.835938 -33.582031 11.234375 -35.21875 C 14.640625 -36.863281 18.539062 -38.054688 22.9375 -38.796875 C 27.34375 -39.535156 31.832031 -39.90625 36.40625 -39.90625 C 38.164062 -39.90625 39.742188 -39.878906 41.140625 -39.828125 C 42.546875 -39.785156 43.878906 -39.710938 45.140625 -39.609375 C 46.410156 -39.515625 47.6875 -39.394531 48.96875 -39.25 C 50.25 -39.113281 51.648438 -38.953125 53.171875 -38.765625 L 53.171875 -43.546875 C 53.171875 -46.773438 52.46875 -49.4375 51.0625 -51.53125 C 49.664062 -53.625 47.941406 -55.273438 45.890625 -56.484375 C 43.847656 -57.703125 41.707031 -58.5625 39.46875 -59.0625 C 37.238281 -59.5625 35.335938 -59.8125 33.765625 -59.8125 C 28.816406 -59.8125 24.25 -59.144531 20.0625 -57.8125 C 15.875 -56.476562 11.96875 -54.695312 8.34375 -52.46875 L 3.921875 -59.8125 C 7.921875 -62.238281 12.40625 -64.222656 17.375 -65.765625 C 22.351562 -67.316406 27.816406 -68.09375 33.765625 -68.09375 C 37.378906 -68.09375 40.9375 -67.628906 44.4375 -66.703125 C 47.9375 -65.773438 51.078125 -64.347656 53.859375 -62.421875 C 56.640625 -60.492188 58.863281 -57.957031 60.53125 -54.8125 C 62.195312 -51.675781 63.03125 -47.921875 63.03125 -43.546875 L 63.03125 0 L 53.171875 0 L 53.171875 -11.140625 C 51.460938 -8.992188 49.523438 -7.109375 47.359375 -5.484375 C 45.191406 -3.867188 42.914062 -2.550781 40.53125 -1.53125 C 38.15625 -0.507812 35.78125 0.269531 33.40625 0.8125 C 31.03125 1.363281 28.769531 1.640625 26.625 1.640625 C 17.820312 1.640625 11.160156 -0.046875 6.640625 -3.421875 C 2.117188 -6.804688 -0.140625 -11.660156 -0.140625 -17.984375 Z M 26.625 -6.703125 C 30.71875 -6.703125 34.394531 -7.304688 37.65625 -8.515625 C 40.914062 -9.734375 43.6875 -11.25 45.96875 -13.0625 C 48.25 -14.875 50.019531 -16.800781 51.28125 -18.84375 C 52.539062 -20.882812 53.171875 -22.738281 53.171875 -24.40625 L 53.171875 -30.6875 C 49.984375 -31.164062 46.925781 -31.425781 44 -31.46875 C 41.070312 -31.519531 38.539062 -31.546875 36.40625 -31.546875 C 32.882812 -31.546875 29.492188 -31.304688 26.234375 -30.828125 C 22.972656 -30.359375 20.128906 -29.585938 17.703125 -28.515625 C 15.273438 -27.441406 13.320312 -26.046875 11.84375 -24.328125 C 10.375 -22.617188 9.640625 -20.503906 9.640625 -17.984375 C 9.640625 -15.179688 11.003906 -12.597656 13.734375 -10.234375 C 16.472656 -7.878906 20.769531 -6.703125 26.625 -6.703125 Z M 26.625 -6.703125 "/></g></g><g transform="translate(399.489854, 120.0756)"><g><path d="M 66.53125 0 L 56.75 0 L 56.75 -47.828125 C 56.75 -51.628906 56.082031 -54.578125 54.75 -56.671875 C 53.414062 -58.765625 51.488281 -59.8125 48.96875 -59.8125 C 45.257812 -59.8125 42.535156 -57.859375 40.796875 -53.953125 C 39.054688 -50.054688 38.1875 -44.585938 38.1875 -37.546875 L 38.1875 0 L 28.34375 0 L 28.34375 -47.828125 C 28.34375 -51.628906 27.660156 -54.578125 26.296875 -56.671875 C 24.941406 -58.765625 23.003906 -59.8125 20.484375 -59.8125 C 18.148438 -59.8125 16.289062 -59.117188 14.90625 -57.734375 C 13.53125 -56.359375 12.453125 -54.597656 11.671875 -52.453125 C 10.890625 -50.316406 10.378906 -47.941406 10.140625 -45.328125 C 9.898438 -42.710938 9.78125 -40.117188 9.78125 -37.546875 L 9.78125 0 L 0 0 L 0 -66.53125 L 9.78125 -66.53125 L 9.78125 -56.890625 C 11.820312 -64.359375 16.269531 -68.09375 23.125 -68.09375 C 29.644531 -68.09375 34.070312 -64.832031 36.40625 -58.3125 C 39.644531 -64.832031 44.210938 -68.09375 50.109375 -68.09375 C 55.773438 -68.09375 59.925781 -66.414062 62.5625 -63.0625 C 65.207031 -59.707031 66.53125 -54.628906 66.53125 -47.828125 Z M 66.53125 0 "/></g></g></g><g fill="#000000" fill-opacity="1"><g transform="translate(479.292887, 120.0756)"><g><path d="M 39.90625 -79.796875 L 26.625 -79.796875 L 26.625 -93.15625 L 39.90625 -93.15625 Z M 53.171875 0 L 13.28125 0 L 13.28125 -8.34375 L 28.34375 -8.34375 L 28.34375 -58.171875 L 13.28125 -58.171875 L 13.28125 -66.53125 L 38.1875 -66.53125 L 38.1875 -8.34375 L 53.171875 -8.34375 Z M 53.171875 0 "/></g></g></g><g fill="#000000" fill-opacity="1"><g transform="translate(559.095905, 120.0756)"><g><path d="M 63.03125 0 L 53.171875 0 L 53.171875 -41.046875 C 53.171875 -46.992188 51.882812 -51.609375 49.3125 -54.890625 C 46.75 -58.171875 42.585938 -59.8125 36.828125 -59.8125 C 33.210938 -59.8125 29.941406 -58.976562 27.015625 -57.3125 C 24.085938 -55.65625 21.597656 -53.429688 19.546875 -50.640625 C 17.503906 -47.859375 15.945312 -44.671875 14.875 -41.078125 C 13.8125 -37.484375 13.28125 -33.738281 13.28125 -29.84375 L 13.28125 0 L 3.5 0 L 3.5 -66.53125 L 13.28125 -66.53125 L 13.28125 -49.828125 C 17.988281 -62.003906 26.382812 -68.09375 38.46875 -68.09375 C 54.84375 -68.09375 63.03125 -59.078125 63.03125 -41.046875 Z M 63.03125 0 "/></g></g></g><g fill="#000000" fill-opacity="1"><g transform="translate(638.898958, 120.0756)"><g><path d="M 63.03125 0 L 53.171875 0 L 53.171875 -6.140625 C 50.367188 -3.617188 47.289062 -1.691406 43.9375 -0.359375 C 40.582031 0.972656 37.144531 1.640625 33.625 1.640625 C 28.34375 1.640625 23.609375 0.785156 19.421875 -0.921875 C 15.234375 -2.640625 11.695312 -5.03125 8.8125 -8.09375 C 5.9375 -11.164062 3.722656 -14.84375 2.171875 -19.125 C 0.628906 -23.40625 -0.140625 -28.09375 -0.140625 -33.1875 C -0.140625 -38.238281 0.628906 -42.914062 2.171875 -47.21875 C 3.722656 -51.519531 5.9375 -55.207031 8.8125 -58.28125 C 11.695312 -61.351562 15.234375 -63.753906 19.421875 -65.484375 C 23.609375 -67.222656 28.34375 -68.09375 33.625 -68.09375 C 37.144531 -68.09375 40.582031 -67.460938 43.9375 -66.203125 C 47.289062 -64.941406 50.367188 -63.050781 53.171875 -60.53125 L 53.171875 -84.796875 L 39.90625 -84.796875 L 39.90625 -93.15625 L 63.03125 -93.15625 Z M 53.171875 -51.03125 C 50.367188 -54.125 47.3125 -56.359375 44 -57.734375 C 40.695312 -59.117188 37.191406 -59.8125 33.484375 -59.8125 C 29.578125 -59.8125 26.132812 -59.117188 23.15625 -57.734375 C 20.1875 -56.359375 17.703125 -54.476562 15.703125 -52.09375 C 13.703125 -49.71875 12.191406 -46.925781 11.171875 -43.71875 C 10.148438 -40.507812 9.640625 -37 9.640625 -33.1875 C 9.640625 -29.382812 10.148438 -25.875 11.171875 -22.65625 C 12.191406 -19.445312 13.703125 -16.648438 15.703125 -14.265625 C 17.703125 -11.890625 20.1875 -10.007812 23.15625 -8.625 C 26.132812 -7.25 29.578125 -6.5625 33.484375 -6.5625 C 40.992188 -6.5625 47.554688 -9.535156 53.171875 -15.484375 Z M 53.171875 -51.03125 "/></g></g></g><g fill="#000000" fill-opacity="1"><g transform="translate(718.702011, 120.0756)"><g><path d="M 64.75 -18.421875 C 64.75 -14.515625 63.769531 -11.273438 61.8125 -8.703125 C 59.863281 -6.140625 57.351562 -4.09375 54.28125 -2.5625 C 51.21875 -1.039062 47.789062 0.0351562 44 0.671875 C 40.21875 1.316406 36.519531 1.640625 32.90625 1.640625 C 26.863281 1.640625 20.84375 0.757812 14.84375 -1 C 8.851562 -2.757812 3.664062 -5.066406 -0.71875 -7.921875 L 3.640625 -16.34375 C 8.546875 -13.25 13.375 -10.867188 18.125 -9.203125 C 22.882812 -7.535156 27.8125 -6.703125 32.90625 -6.703125 C 47.613281 -6.703125 54.96875 -10.507812 54.96875 -18.125 C 54.96875 -19.988281 54.359375 -21.5 53.140625 -22.65625 C 51.929688 -23.820312 50.300781 -24.773438 48.25 -25.515625 C 46.207031 -26.253906 43.863281 -26.835938 41.21875 -27.265625 C 38.582031 -27.691406 35.8125 -28.097656 32.90625 -28.484375 C 29.195312 -29.003906 25.507812 -29.617188 21.84375 -30.328125 C 18.175781 -31.046875 14.832031 -32.117188 11.8125 -33.546875 C 8.789062 -34.972656 6.363281 -36.875 4.53125 -39.25 C 2.695312 -41.632812 1.78125 -44.78125 1.78125 -48.6875 C 1.78125 -52.007812 2.625 -54.882812 4.3125 -57.3125 C 6.007812 -59.738281 8.269531 -61.757812 11.09375 -63.375 C 13.925781 -65 17.242188 -66.191406 21.046875 -66.953125 C 24.859375 -67.710938 28.8125 -68.09375 32.90625 -68.09375 C 38.757812 -68.09375 43.992188 -67.414062 48.609375 -66.0625 C 53.222656 -64.707031 57.390625 -62.769531 61.109375 -60.25 L 57.171875 -52.609375 C 53.367188 -55.273438 49.515625 -57.140625 45.609375 -58.203125 C 41.710938 -59.273438 37.476562 -59.8125 32.90625 -59.8125 C 30.863281 -59.8125 28.59375 -59.632812 26.09375 -59.28125 C 23.59375 -58.925781 21.269531 -58.304688 19.125 -57.421875 C 16.988281 -56.546875 15.191406 -55.40625 13.734375 -54 C 12.285156 -52.59375 11.5625 -50.820312 11.5625 -48.6875 C 11.5625 -46.820312 12.164062 -45.332031 13.375 -44.21875 C 14.59375 -43.101562 16.222656 -42.175781 18.265625 -41.4375 C 20.316406 -40.695312 22.660156 -40.113281 25.296875 -39.6875 C 27.941406 -39.257812 30.71875 -38.851562 33.625 -38.46875 C 37.238281 -37.945312 40.890625 -37.328125 44.578125 -36.609375 C 48.265625 -35.898438 51.617188 -34.851562 54.640625 -33.46875 C 57.660156 -32.09375 60.097656 -30.210938 61.953125 -27.828125 C 63.816406 -25.453125 64.75 -22.316406 64.75 -18.421875 Z M 64.75 -18.421875 "/></g></g></g></g></g><g clip-path="url(#3991b22b01)"><g clip-path="url(#179e2339e1)"><g transform="matrix(1, 0, 0, 1, 1023, 6)"><g clip-path="url(#aa395d9765)"><g clip-path="url(#4f56da62c5)"><g clip-path="url(#6579ce2397)"><path fill="#000000" d="M 0.417969 0.769531 L 17.191406 0.769531 L 17.191406 17.542969 L 0.417969 17.542969 Z M 0.417969 0.769531 " fill-opacity="1" fill-rule="nonzero"/></g></g></g></g></g></g><g clip-path="url(#a5ffc0e610)"><g clip-path="url(#e594c0d2d5)"><g transform="matrix(1, 0, 0, 1, 1067, 6)"><g clip-path="url(#2fe7e95fdc)"><g clip-path="url(#040cef410f)"><g clip-path="url(#a3c32a0ed4)"><path fill="#ff5a1f" d="M 0.0625 0.769531 L 16.832031 0.769531 L 16.832031 17.542969 L 0.0625 17.542969 Z M 0.0625 0.769531 " fill-opacity="1" fill-rule="nonzero"/></g></g></g></g></g></g></svg>